<svg width="34" height="34" viewBox="0 0 34 34" fill="none" xmlns="http://www.w3.org/2000/svg">
<path d="M15.584 2.8335H12.7507C5.66732 2.8335 2.83398 5.66683 2.83398 12.7502V21.2502C2.83398 28.3335 5.66732 31.1668 12.7507 31.1668H21.2507C28.334 31.1668 31.1673 28.3335 31.1673 21.2502V18.4168" stroke="#7485E6" stroke-width="2.5" stroke-linecap="round" stroke-linejoin="round"/>
<path d="M22.7237 4.27845L11.5603 15.4418C11.1353 15.8668 10.7103 16.7026 10.6253 17.3118L10.0162 21.5759C9.78948 23.1201 10.8803 24.1968 12.4245 23.9843L16.6887 23.3751C17.2837 23.2901 18.1195 22.8651 18.5587 22.4401L29.722 11.2768C31.6487 9.35011 32.5553 7.11178 29.722 4.27845C26.8887 1.44511 24.6503 2.35178 22.7237 4.27845Z" stroke="#7485E6" stroke-width="2.5" stroke-miterlimit="10" stroke-linecap="round" stroke-linejoin="round"/>
<path d="M21.123 5.87939C22.0722 9.26523 24.7214 11.9144 28.1214 12.8777" stroke="#7485E6" stroke-width="2.5" stroke-miterlimit="10" stroke-linecap="round" stroke-linejoin="round"/>
</svg>
