<svg width="40" height="40" viewBox="0 0 40 40" fill="none" xmlns="http://www.w3.org/2000/svg">
<path d="M30.068 22.5833C29.368 23.2666 28.968 24.25 29.068 25.3C29.218 27.1 30.868 28.4166 32.668 28.4166H35.8346V30.4C35.8346 33.85 33.018 36.6667 29.568 36.6667H12.7346C14.118 35.45 15.0013 33.6667 15.0013 31.6667C15.0013 27.9833 12.018 25 8.33464 25C6.76797 25 5.31797 25.55 4.16797 26.4667V19.1833C4.16797 15.7333 6.98463 12.9167 10.4346 12.9167H29.568C33.018 12.9167 35.8346 15.7333 35.8346 19.1833V21.5833H32.468C31.5346 21.5833 30.6846 21.95 30.068 22.5833Z" stroke="#7485E6" stroke-width="2.5" stroke-linecap="round" stroke-linejoin="round"/>
<path d="M4.16797 19.1833V13.0667C4.16797 11.0833 5.38463 9.31661 7.23463 8.61661L20.468 3.61661C22.5346 2.84994 24.7513 4.36666 24.7513 6.58333V12.9166" stroke="#7485E6" stroke-width="2.5" stroke-linecap="round" stroke-linejoin="round"/>
<path d="M37.5974 23.2836V26.717C37.5974 27.6337 36.864 28.3836 35.9307 28.417H32.664C30.864 28.417 29.214 27.1003 29.064 25.3003C28.964 24.2503 29.364 23.267 30.064 22.5836C30.6807 21.9503 31.5307 21.5837 32.464 21.5837H35.9307C36.864 21.617 37.5974 22.3669 37.5974 23.2836Z" stroke="#7485E6" stroke-width="2.5" stroke-linecap="round" stroke-linejoin="round"/>
<path d="M11.666 20H23.3327" stroke="#7485E6" stroke-width="2.5" stroke-linecap="round" stroke-linejoin="round"/>
<path d="M15.0013 31.6667C15.0013 33.6667 14.118 35.45 12.7346 36.6667C11.5513 37.7 10.018 38.3333 8.33464 38.3333C4.6513 38.3333 1.66797 35.35 1.66797 31.6667C1.66797 29.5667 2.63464 27.6833 4.16797 26.4667C5.31797 25.55 6.76797 25 8.33464 25C12.018 25 15.0013 27.9833 15.0013 31.6667Z" stroke="#7485E6" stroke-width="2.5" stroke-miterlimit="10" stroke-linecap="round" stroke-linejoin="round"/>
<path d="M8.7513 29.5833V32.0833L6.66797 33.3333" stroke="#7485E6" stroke-width="2.5" stroke-miterlimit="10" stroke-linecap="round" stroke-linejoin="round"/>
</svg>
