<svg width="21" height="29" viewBox="0 0 21 29" fill="none" xmlns="http://www.w3.org/2000/svg">
<path d="M13.3965 23.8961L15.2643 25.7639L18.9998 22.0283" stroke="white" stroke-width="2.5" stroke-linecap="round" stroke-linejoin="round"/>
<path d="M10.5939 12.8995C10.4711 12.8872 10.3236 12.8872 10.1884 12.8995C7.26388 12.8012 4.94145 10.405 4.94145 7.45587C4.92916 4.44531 7.37448 2 10.385 2C13.3956 2 15.8409 4.44531 15.8409 7.45587C15.8409 10.405 13.5062 12.8012 10.5939 12.8995Z" stroke="white" stroke-width="2.5" stroke-linecap="round" stroke-linejoin="round"/>
<path d="M10.3866 27.2872C8.15014 27.2872 5.92602 26.7219 4.23027 25.5914C1.25658 23.6008 1.25658 20.3567 4.23027 18.3784C7.60947 16.1174 13.1514 16.1174 16.5306 18.3784" stroke="white" stroke-width="2.5" stroke-linecap="round" stroke-linejoin="round"/>
</svg>
