<svg width="30" height="44" viewBox="0 0 30 44" fill="none" xmlns="http://www.w3.org/2000/svg">
<path d="M4.6 44H2.3H0V34.8V25.6C0 23 1 20.7 2.7 19C4.4 17.3 6.7 16.3 9.2 16.3H11.5H13.8H21.9H30V18.6V20.9C30 23.4 29 25.8 27.3 27.4C25.6 29 23.3 30.1 20.8 30.1H17.3H13.8V32.4V34.7C13.8 37.2 12.8 39.6 11.1 41.2C9.4 42.8 7.2 44 4.6 44Z" fill="white"/>
<path d="M0 4.6V2.3V0H10.4H20.8C23.3 0 25.7 1 27.3 2.7C28.9 4.4 30 6.7 30 9.2V11.5V13.8H19.6H9.2C6.7 13.8 4.3 12.8 2.7 11.1C1.1 9.4 0 7.2 0 4.6Z" fill="white"/>
</svg>
