<svg width="29" height="29" viewBox="0 0 29 29" fill="none" xmlns="http://www.w3.org/2000/svg">
<path d="M20.5858 0H8.4287C3.14807 0 0 3.1465 0 8.4245V20.561C0 25.8535 3.14807 29 8.4287 29H20.5713C25.8519 29 29 25.8535 29 20.5755V8.4245C29.0145 3.1465 25.8664 0 20.5858 0ZM8.34166 10.353C8.34166 9.1785 9.29913 8.207 10.4887 8.207C11.6638 8.207 12.6358 9.164 12.6358 10.353C12.6358 11.5275 11.6783 12.499 10.4887 12.499C9.29913 12.4845 8.34166 11.5275 8.34166 10.353ZM9.89393 20.329C9.61829 20.329 9.34266 20.2275 9.12505 20.01C8.70434 19.5895 8.70434 18.908 9.12505 18.473L18.6273 8.9755C19.048 8.555 19.7443 8.555 20.165 8.9755C20.5858 9.396 20.5858 10.092 20.165 10.5125L10.6628 20.01C10.4452 20.2275 10.1696 20.329 9.89393 20.329ZM19.9765 20.793C18.8014 20.793 17.8294 19.836 17.8294 18.647C17.8294 17.4725 18.7869 16.501 19.9765 16.501C21.1515 16.501 22.1235 17.458 22.1235 18.647C22.1235 19.836 21.166 20.793 19.9765 20.793Z" fill="#7485E6"/>
</svg>
