<svg width="48" height="43" viewBox="0 0 48 43" fill="none" xmlns="http://www.w3.org/2000/svg">
<path fill-rule="evenodd" clip-rule="evenodd" d="M24 0.41675C27.5348 0.41675 30.6964 1.95936 32.8022 4.38536C34.1322 2.02147 36.7262 0.416749 39.7083 0.416749C44.0461 0.416748 47.5625 3.81192 47.5625 8.00008L47.5625 26.6667C47.5625 30.8549 44.0461 34.2501 39.7083 34.2501C36.7061 34.2501 34.0972 32.6236 32.7754 30.2336C32.5595 30.5765 32.3268 30.9414 32.0762 31.3346L26.5697 39.974C25.6022 41.4921 23.8883 42.4168 22.0422 42.4168C18.784 42.4168 16.2925 39.6127 16.7879 36.5035L17.3752 32.8173C17.8417 29.89 15.4959 27.2501 12.4284 27.2501L10.7615 27.2501C3.28304 27.2501 -1.58097 19.6513 1.76351 13.193L4.53909 7.83331C6.89293 3.28796 11.7045 0.416751 16.9679 0.416751L24 0.41675ZM23.4824 38.1397C23.1747 38.6226 22.6294 38.9168 22.0422 38.9168C21.0057 38.9168 20.2131 38.0248 20.3707 37.0357L20.9581 33.3495C21.7623 28.3021 17.7176 23.7501 12.4284 23.7501L10.7615 23.7501C5.9778 23.7501 2.86646 18.8894 5.00581 14.7583L7.78138 9.39856C9.52118 6.03895 13.0776 3.91675 16.9679 3.91675L24 3.91675C28.3377 3.91675 31.8542 7.31193 31.8542 11.5001L31.8542 19.5126C31.8542 22.2555 31.8437 23.3589 31.5969 24.4037C31.5184 24.7358 31.4222 25.0639 31.3088 25.3865C30.9519 26.4012 30.3618 27.3462 28.8729 29.6822L23.4824 38.1397ZM39.7083 30.7501C37.3726 30.7501 35.4792 28.9219 35.4792 26.6668L35.4792 8.00008C35.4792 5.74492 37.3726 3.91675 39.7083 3.91675C42.044 3.91675 43.9375 5.74492 43.9375 8.00008L43.9375 26.6667C43.9375 28.9219 42.044 30.7501 39.7083 30.7501Z" fill="#DE4949"/>
</svg>
