<svg width="35" height="35" viewBox="0 0 35 35" fill="none" xmlns="http://www.w3.org/2000/svg">
<path d="M23.6098 2.91602H11.3889C6.0806 2.91602 2.91602 6.0806 2.91602 11.3889V23.5952C2.91602 28.9181 6.0806 32.0827 11.3889 32.0827H23.5952C28.9035 32.0827 32.0681 28.9181 32.0681 23.6098V11.3889C32.0827 6.0806 28.9181 2.91602 23.6098 2.91602ZM15.9681 25.5348C15.5452 25.9577 14.7431 26.366 14.1598 26.4535L10.5723 26.9639C10.441 26.9785 10.3098 26.9931 10.1785 26.9931C9.5806 26.9931 9.02643 26.7889 8.63268 26.3952C8.15143 25.9139 7.94727 25.2139 8.06393 24.441L8.57435 20.8535C8.66185 20.2556 9.0556 19.4681 9.4931 19.0452L15.9973 12.541C16.1139 12.8473 16.2306 13.1535 16.391 13.5035C16.5368 13.8098 16.6973 14.1306 16.8723 14.4223C17.0181 14.6702 17.1785 14.9035 17.3098 15.0785C17.4702 15.3264 17.6598 15.5598 17.7764 15.691C17.8493 15.7931 17.9077 15.866 17.9368 15.8952C18.3014 16.3327 18.7243 16.741 19.0889 17.0473C19.191 17.1493 19.2493 17.2077 19.2785 17.2223C19.4973 17.3973 19.716 17.5723 19.9056 17.7035C20.1389 17.8785 20.3723 18.0389 20.6202 18.1702C20.9118 18.3452 21.2327 18.5056 21.5535 18.666C21.8889 18.8118 22.1952 18.9431 22.5014 19.0452L15.9681 25.5348ZM25.3306 16.1723L23.9889 17.5285C23.9014 17.616 23.7848 17.6598 23.6681 17.6598C23.6243 17.6598 23.566 17.6598 23.5368 17.6452C20.5764 16.7993 18.2139 14.4368 17.3681 11.4764C17.3243 11.316 17.3681 11.141 17.4848 11.0389L18.841 9.68268C21.0577 7.46602 23.1723 7.50977 25.3452 9.68268C26.4535 10.791 26.9931 11.8556 26.9931 12.9639C26.9785 14.0139 26.4389 15.0639 25.3306 16.1723Z" fill="#4973DE"/>
</svg>
