<svg width="25" height="24" viewBox="0 0 25 24" fill="none" xmlns="http://www.w3.org/2000/svg">
<path d="M16.9361 2H8.55609C4.91609 2 2.74609 4.17 2.74609 7.81V16.18C2.74609 19.83 4.91609 22 8.55609 22H16.9261C20.5661 22 22.7361 19.83 22.7361 16.19V7.81C22.7461 4.17 20.5761 2 16.9361 2ZM11.6961 17.51C11.4061 17.8 10.8561 18.08 10.4561 18.14L7.99609 18.49C7.90609 18.5 7.81609 18.51 7.72609 18.51C7.31609 18.51 6.93609 18.37 6.66609 18.1C6.33609 17.77 6.19609 17.29 6.27609 16.76L6.62609 14.3C6.68609 13.89 6.95609 13.35 7.25609 13.06L11.7161 8.6C11.7961 8.81 11.8761 9.02 11.9861 9.26C12.0861 9.47 12.1961 9.69 12.3161 9.89C12.4161 10.06 12.5261 10.22 12.6161 10.34C12.7261 10.51 12.8561 10.67 12.9361 10.76C12.9861 10.83 13.0261 10.88 13.0461 10.9C13.2961 11.2 13.5861 11.48 13.8361 11.69C13.9061 11.76 13.9461 11.8 13.9661 11.81C14.1161 11.93 14.2661 12.05 14.3961 12.14C14.5561 12.26 14.7161 12.37 14.8861 12.46C15.0861 12.58 15.3061 12.69 15.5261 12.8C15.7561 12.9 15.9661 12.99 16.1761 13.06L11.6961 17.51ZM18.1161 11.09L17.1961 12.02C17.1361 12.08 17.0561 12.11 16.9761 12.11C16.9461 12.11 16.9061 12.11 16.8861 12.1C14.8561 11.52 13.2361 9.9 12.6561 7.87C12.6261 7.76 12.6561 7.64 12.7361 7.57L13.6661 6.64C15.1861 5.12 16.6361 5.15 18.1261 6.64C18.8861 7.4 19.2561 8.13 19.2561 8.89C19.2461 9.61 18.8761 10.33 18.1161 11.09Z" fill="#4973DE"/>
</svg>
