<svg width="21" height="22" viewBox="0 0 21 22" fill="none" xmlns="http://www.w3.org/2000/svg">
<path d="M19.3203 13.75C19.3203 14.64 19.0803 15.48 18.6403 16.2C17.8203 17.57 16.3103 18.5 14.5703 18.5C13.6303 18.5 12.7503 18.22 12.0103 17.73C11.3903 17.35 10.8803 16.82 10.5103 16.2C10.0703 15.48 9.82031 14.64 9.82031 13.75C9.82031 11.13 11.9503 9 14.5703 9C14.9303 9 15.2803 9.04 15.6103 9.12C17.7403 9.59 19.3203 11.49 19.3203 13.75Z" stroke="white" stroke-width="1.9" stroke-miterlimit="10" stroke-linecap="round" stroke-linejoin="round"/>
<path d="M12.7197 13.7501L13.8897 14.9201L16.4197 12.5801" stroke="white" stroke-width="1.5" stroke-linecap="round" stroke-linejoin="round"/>
<path d="M18.38 3.01999V5.23999C18.38 6.04999 17.87 7.06001 17.37 7.57001L15.61 9.12C15.28 9.04 14.93 9 14.57 9C11.95 9 9.82001 11.13 9.82001 13.75C9.82001 14.64 10.07 15.48 10.51 16.2C10.88 16.82 11.39 17.35 12.01 17.73V18.07C12.01 18.68 11.61 19.49 11.1 19.79L9.69 20.7C8.38 21.51 6.56 20.6 6.56 18.98V13.63C6.56 12.92 6.15 12.01 5.75 11.51L1.90997 7.47C1.40997 6.96 1 6.05001 1 5.45001V3.12C1 1.91 1.91002 1 3.02002 1H16.36C17.47 1 18.38 1.90999 18.38 3.01999Z" stroke="white" stroke-width="1.9" stroke-miterlimit="10" stroke-linecap="round" stroke-linejoin="round"/>
</svg>
