<svg width="24" height="22" viewBox="0 0 24 22" fill="none" xmlns="http://www.w3.org/2000/svg">
<path d="M23.0004 4.84961H16.4004" stroke="white" stroke-width="2" stroke-miterlimit="10" stroke-linecap="round" stroke-linejoin="round"/>
<path d="M5.4 4.84961H1" stroke="white" stroke-width="2" stroke-miterlimit="10" stroke-linecap="round" stroke-linejoin="round"/>
<path d="M9.8002 8.7C11.9265 8.7 13.6502 6.9763 13.6502 4.85C13.6502 2.7237 11.9265 1 9.8002 1C7.6739 1 5.9502 2.7237 5.9502 4.85C5.9502 6.9763 7.6739 8.7 9.8002 8.7Z" stroke="white" stroke-width="2" stroke-miterlimit="10" stroke-linecap="round" stroke-linejoin="round"/>
<path d="M22.9996 16.9492H18.5996" stroke="white" stroke-width="2" stroke-miterlimit="10" stroke-linecap="round" stroke-linejoin="round"/>
<path d="M7.6 16.9492H1" stroke="white" stroke-width="2" stroke-miterlimit="10" stroke-linecap="round" stroke-linejoin="round"/>
<path d="M14.1996 20.7996C16.3259 20.7996 18.0496 19.0759 18.0496 16.9496C18.0496 14.8233 16.3259 13.0996 14.1996 13.0996C12.0733 13.0996 10.3496 14.8233 10.3496 16.9496C10.3496 19.0759 12.0733 20.7996 14.1996 20.7996Z" stroke="white" stroke-width="2" stroke-miterlimit="10" stroke-linecap="round" stroke-linejoin="round"/>
</svg>
