<svg width="35" height="35" viewBox="0 0 35 35" fill="none" xmlns="http://www.w3.org/2000/svg">
<path d="M17.5003 2.91675C9.46491 2.91675 2.91699 9.46466 2.91699 17.5001C2.91699 25.5355 9.46491 32.0834 17.5003 32.0834C25.5357 32.0834 32.0837 25.5355 32.0837 17.5001C32.0837 9.46466 25.5357 2.91675 17.5003 2.91675ZM16.4066 11.6667C16.4066 11.0688 16.9024 10.573 17.5003 10.573C18.0982 10.573 18.5941 11.0688 18.5941 11.6667V18.9584C18.5941 19.5563 18.0982 20.0522 17.5003 20.0522C16.9024 20.0522 16.4066 19.5563 16.4066 18.9584V11.6667ZM18.842 23.8876C18.7691 24.0772 18.667 24.223 18.5357 24.3688C18.3899 24.5001 18.2295 24.6022 18.0545 24.6751C17.8795 24.748 17.6899 24.7917 17.5003 24.7917C17.3107 24.7917 17.1212 24.748 16.9462 24.6751C16.7712 24.6022 16.6107 24.5001 16.4649 24.3688C16.3337 24.223 16.2316 24.0772 16.1587 23.8876C16.0857 23.7126 16.042 23.523 16.042 23.3334C16.042 23.1438 16.0857 22.9542 16.1587 22.7792C16.2316 22.6042 16.3337 22.4438 16.4649 22.298C16.6107 22.1667 16.7712 22.0647 16.9462 21.9917C17.2962 21.8459 17.7045 21.8459 18.0545 21.9917C18.2295 22.0647 18.3899 22.1667 18.5357 22.298C18.667 22.4438 18.7691 22.6042 18.842 22.7792C18.9149 22.9542 18.9587 23.1438 18.9587 23.3334C18.9587 23.523 18.9149 23.7126 18.842 23.8876Z" fill="#4973DE"/>
</svg>
