<svg width="25" height="25" viewBox="0 0 25 25" fill="none" xmlns="http://www.w3.org/2000/svg">
<path d="M21.4657 15.8639C19.0962 18.2219 15.703 18.9465 12.7239 18.0149L7.30627 23.421C6.91519 23.8235 6.14453 24.0651 5.59241 23.9846L3.0849 23.6395C2.25673 23.5245 1.48608 22.7423 1.35955 21.9141L1.01448 19.4066C0.933962 18.8545 1.19852 18.0839 1.57809 17.6928L6.9842 12.2867C6.06401 9.29607 6.77716 5.90288 9.14664 3.5449C12.5398 0.151702 18.0495 0.151702 21.4542 3.5449C24.8589 6.93809 24.8589 12.4707 21.4657 15.8639Z" stroke="white" stroke-width="1.9" stroke-miterlimit="10" stroke-linecap="round" stroke-linejoin="round"/>
<path d="M5.62891 19.8086L8.27445 22.4541" stroke="white" stroke-width="1.5" stroke-miterlimit="10" stroke-linecap="round" stroke-linejoin="round"/>
<path d="M8 17L10.6455 19.6455" stroke="white" stroke-width="1.5" stroke-miterlimit="10" stroke-linecap="round" stroke-linejoin="round"/>
<path d="M15.3806 11.3433C16.3335 11.3433 17.106 10.5708 17.106 9.61793C17.106 8.66504 16.3335 7.89258 15.3806 7.89258C14.4277 7.89258 13.6553 8.66504 13.6553 9.61793C13.6553 10.5708 14.4277 11.3433 15.3806 11.3433Z" stroke="white" stroke-width="1.5" stroke-linecap="round" stroke-linejoin="round"/>
</svg>
