<svg width="58" height="56" viewBox="0 0 58 56" fill="none" xmlns="http://www.w3.org/2000/svg">
<path fill-rule="evenodd" clip-rule="evenodd" d="M29 49.5833C25.4652 49.5833 22.3036 48.0406 20.1978 45.6146C18.8678 47.9785 16.2738 49.5833 13.2917 49.5833C8.95393 49.5833 5.4375 46.1881 5.4375 41.9999V23.3333C5.4375 19.1451 8.95393 15.7499 13.2917 15.7499C16.2939 15.7499 18.9028 17.3764 20.2246 19.7664C20.4405 19.4236 20.6731 19.0586 20.9238 18.6654L26.4303 10.026C27.3978 8.50795 29.1117 7.58325 30.9578 7.58325C34.216 7.58325 36.7075 10.3873 36.2121 13.4965L35.6248 17.1827C35.1583 20.11 37.5041 22.7499 40.5716 22.7499H42.2385C49.717 22.7499 54.581 30.3487 51.2365 36.807L48.4609 42.1667C46.1071 46.712 41.2954 49.5833 36.0321 49.5833H29ZM29.5176 11.8603C29.8253 11.3774 30.3706 11.0833 30.9578 11.0833C31.9943 11.0833 32.7869 11.9753 32.6293 12.9643L32.0419 16.6505C31.2376 21.6979 35.2824 26.2499 40.5716 26.2499H42.2385C47.0222 26.2499 50.1335 31.1106 47.9942 35.2417L45.2186 40.6014C43.4788 43.9611 39.9224 46.0833 36.0321 46.0833H29C24.6623 46.0833 21.1458 42.6881 21.1458 38.4999V30.4874C21.1458 27.7445 21.1563 26.6411 21.4031 25.5963C21.4816 25.2642 21.5778 24.9361 21.6912 24.6135C22.0481 23.5988 22.6382 22.6538 24.1271 20.3178L29.5176 11.8603ZM13.2917 19.2499C15.6274 19.2499 17.5208 21.0781 17.5208 23.3333V41.9999C17.5208 44.2551 15.6274 46.0833 13.2917 46.0833C10.956 46.0833 9.0625 44.2551 9.0625 41.9999V23.3333C9.0625 21.0781 10.956 19.2499 13.2917 19.2499Z" fill="#479E55"/>
</svg>
