<svg width="29" height="29" viewBox="0 0 29 29" fill="none" xmlns="http://www.w3.org/2000/svg">
<path d="M20.5858 0H8.4287C3.14807 0 0 3.1465 0 8.4245V20.561C0 25.8535 3.14807 29 8.4287 29H20.5713C25.8519 29 29 25.8535 29 20.5755V8.4245C29.0145 3.1465 25.8664 0 20.5858 0ZM8.2256 5.075C8.2256 4.4805 8.71885 3.9875 9.31364 3.9875C9.90844 3.9875 10.4017 4.4805 10.4017 5.075V10.73C10.4017 11.3245 9.90844 11.8175 9.31364 11.8175C8.71885 11.8175 8.2256 11.3245 8.2256 10.73V5.075ZM10.7574 20.9907C10.5503 21.0724 10.4017 21.2652 10.4017 21.4878V23.925C10.4017 24.5195 9.90844 25.0125 9.31364 25.0125C8.71885 25.0125 8.2256 24.5195 8.2256 23.925V21.4878C8.2256 21.2652 8.077 21.0724 7.86993 20.9907C6.40194 20.4112 5.36767 18.9939 5.36767 17.3275C5.36767 15.1525 7.13756 13.369 9.31364 13.369C11.4897 13.369 13.2741 15.138 13.2741 17.3275C13.2741 18.994 12.2273 20.4113 10.7574 20.9907ZM20.7889 23.925C20.7889 24.5195 20.2956 25.0125 19.7008 25.0125C19.106 25.0125 18.6128 24.5195 18.6128 23.925V18.27C18.6128 17.6755 19.106 17.1825 19.7008 17.1825C20.2956 17.1825 20.7889 17.6755 20.7889 18.27V23.925ZM19.7008 15.6165C17.5247 15.6165 15.7403 13.8475 15.7403 11.658C15.7403 9.99154 16.7872 8.57421 18.2571 7.99476C18.4642 7.91312 18.6128 7.72028 18.6128 7.49766V5.075C18.6128 4.4805 19.106 3.9875 19.7008 3.9875C20.2956 3.9875 20.7889 4.4805 20.7889 5.075V7.51216C20.7889 7.73478 20.9375 7.9276 21.1445 8.00934C22.6125 8.58884 23.6468 10.0061 23.6468 11.6725C23.6468 13.8475 21.8769 15.6165 19.7008 15.6165Z" fill="#7485E6"/>
</svg>
