<svg width="35" height="35" viewBox="0 0 35 35" fill="none" xmlns="http://www.w3.org/2000/svg">
<path d="M13.3441 10.9238C12.5274 10.9238 11.8857 11.5801 11.8857 12.3822C11.8857 13.1842 12.542 13.8405 13.3441 13.8405C14.1462 13.8405 14.8024 13.1842 14.8024 12.3822C14.8024 11.5801 14.1462 10.9238 13.3441 10.9238Z" fill="#7485E6"/>
<path d="M31.2962 7.34935C30.0712 4.5056 27.3732 2.91602 23.6107 2.91602H11.3899C6.70866 2.91602 2.91699 6.70768 2.91699 11.3889V23.6098C2.91699 27.3723 4.50658 30.0702 7.35033 31.2952C7.62741 31.4118 7.94824 31.3389 8.15241 31.1348L31.1357 8.15143C31.3545 7.93268 31.4274 7.61185 31.2962 7.34935ZM15.3566 17.8493C14.7878 18.4035 14.0441 18.666 13.3003 18.666C12.5566 18.666 11.8128 18.3889 11.2441 17.8493C9.75658 16.4493 8.12324 14.2181 8.75033 11.5639C9.30449 9.15768 11.4337 8.07852 13.3003 8.07852C15.167 8.07852 17.2962 9.15768 17.8503 11.5785C18.4628 14.2181 16.8295 16.4493 15.3566 17.8493Z" fill="#7485E6"/>
<path d="M28.3941 29.9404C28.715 30.2612 28.6712 30.7862 28.2775 31.0049C26.9941 31.7195 25.4337 32.0841 23.6108 32.0841H11.39C10.967 32.0841 10.792 31.5883 11.0837 31.2966L19.892 22.4883C20.1837 22.1966 20.6358 22.1966 20.9275 22.4883L28.3941 29.9404Z" fill="#7485E6"/>
<path d="M32.0831 11.39V23.6108C32.0831 25.4337 31.7185 27.0087 31.0039 28.2775C30.7852 28.6712 30.2602 28.7004 29.9393 28.3941L22.4727 20.9275C22.181 20.6358 22.181 20.1837 22.4727 19.892L31.281 11.0837C31.5872 10.792 32.0831 10.967 32.0831 11.39Z" fill="#7485E6"/>
</svg>
