<svg width="65" height="65" viewBox="0 0 65 65" fill="none" xmlns="http://www.w3.org/2000/svg">
<path d="M32.5003 5.41602C17.5774 5.41602 5.41699 17.5764 5.41699 32.4994C5.41699 47.4223 17.5774 59.5827 32.5003 59.5827C47.4232 59.5827 59.5837 47.4223 59.5837 32.4994C59.5837 17.5764 47.4232 5.41602 32.5003 5.41602ZM41.6003 38.7285C42.3857 39.5139 42.3857 40.8139 41.6003 41.5993C41.1941 42.0056 40.6795 42.1952 40.1649 42.1952C39.6503 42.1952 39.1357 42.0056 38.7295 41.5993L32.5003 35.3702L26.2712 41.5993C25.8649 42.0056 25.3503 42.1952 24.8357 42.1952C24.3212 42.1952 23.8066 42.0056 23.4003 41.5993C22.6149 40.8139 22.6149 39.5139 23.4003 38.7285L29.6295 32.4994L23.4003 26.2702C22.6149 25.4848 22.6149 24.1848 23.4003 23.3994C24.1857 22.6139 25.4857 22.6139 26.2712 23.3994L32.5003 29.6285L38.7295 23.3994C39.5149 22.6139 40.8149 22.6139 41.6003 23.3994C42.3857 24.1848 42.3857 25.4848 41.6003 26.2702L35.3712 32.4994L41.6003 38.7285Z" fill="#E94444"/>
</svg>
