<svg width="40" height="29" viewBox="0 0 40 29" fill="none" xmlns="http://www.w3.org/2000/svg">
<path d="M8.34277 0.918457C8.71256 0.964681 9.06614 1.17799 9.40332 1.51514L10.917 3.02881C11.0189 3.13071 11.0712 3.15519 11.1162 3.16162C11.1705 3.16926 11.2455 3.15612 11.4082 3.10205C13.8001 2.01641 16.4094 1.3642 19.0205 1.25537H19.0215L19.5703 1.24072C25.0296 1.15801 29.7331 2.89421 33.8525 6.4458L34.2627 6.80713L34.2646 6.80908L34.8662 7.39014C36.2441 8.76808 37.4459 10.3026 38.3984 11.9214L38.5547 12.1948C39.2792 13.5638 39.1303 14.9345 38.4023 16.2866L38.4014 16.2886C36.7673 19.23 34.4794 21.6267 31.6494 23.4771C31.5724 23.5285 31.5221 23.568 31.4912 23.6001C31.4764 23.6155 31.4685 23.6274 31.4639 23.6353C31.4617 23.6391 31.4596 23.6424 31.459 23.644V23.6479C31.4598 23.6512 31.4626 23.659 31.4697 23.6714C31.4851 23.698 31.5141 23.7343 31.5654 23.7856L31.9385 24.1177C32.0733 24.239 32.2144 24.3802 32.3311 24.5513C32.7642 24.9863 33.0323 25.3898 33.0938 25.7729C33.1583 26.1767 32.9898 26.5236 32.6367 26.8179L32.6357 26.8169C32.3353 27.1122 31.9682 27.2364 31.5713 27.1753C31.1776 27.1146 30.7723 26.8753 30.3809 26.4839L29.083 25.187C28.9811 25.0851 28.9288 25.0597 28.8838 25.0532C28.8295 25.0456 28.7539 25.0586 28.5908 25.1128C26.1987 26.1985 23.5897 26.8517 20.8711 26.9604H20.8701C14.9929 27.1781 9.98172 25.3262 5.62891 21.4087L5.62695 21.4067C3.99566 19.8842 2.58099 18.1434 1.49219 16.2925L1.4873 16.2837L1.62207 16.2163L1.4873 16.2827C1.15481 15.6176 0.930735 14.8383 0.930664 14.0542C0.930664 13.2666 1.15678 12.5942 1.4873 11.9331L1.49023 11.9272L1.80469 11.3813C3.41282 8.68788 5.58919 6.47342 8.24219 4.73877L8.24902 4.73389L8.25684 4.73096C8.36796 4.6754 8.44068 4.63817 8.48828 4.60791C8.48977 4.60696 8.49081 4.6049 8.49219 4.604C8.45972 4.56396 8.40721 4.51122 8.32617 4.43018L8.31543 4.41943L8.30762 4.40771C8.10244 4.09994 7.79215 3.7897 7.48438 3.58447L7.4668 3.57275L7.4541 3.55713C7.12085 3.16834 6.90987 2.78954 6.86426 2.40967C6.8178 2.02255 6.94551 1.65807 7.23633 1.30908L7.24512 1.29834L7.25488 1.28955C7.60298 0.999467 7.96788 0.871636 8.34277 0.918457ZM10.5645 6.70264C10.4979 6.69527 10.4007 6.7239 10.2451 6.82764L10.2393 6.83154C7.72939 8.33752 5.78137 10.4091 4.21973 12.8755L3.91211 13.3745C3.7646 13.6205 3.71875 13.8341 3.73047 14.0454C3.7424 14.2601 3.81375 14.4816 3.91895 14.7456C7.56739 20.8546 12.9235 23.851 19.6807 24.1733C19.9942 24.1731 20.2565 24.1473 20.4971 24.1206C20.7335 24.0943 20.957 24.0666 21.1807 24.0659L21.541 24.0425C23.334 23.905 25.0338 23.4904 26.6416 22.8882C26.6889 22.8643 26.7244 22.8446 26.749 22.8257C26.7671 22.8117 26.7744 22.8015 26.7773 22.7974C26.777 22.7964 26.7769 22.7949 26.7764 22.7935C26.7732 22.7855 26.7671 22.7738 26.7559 22.7583L26.7051 22.7007C25.9627 21.9583 25.1943 21.2966 24.543 20.5386L24.4688 20.4702C24.3986 20.4106 24.3374 20.376 24.2783 20.3628C24.2252 20.351 24.1593 20.3532 24.0713 20.394L23.9746 20.4487C22.3178 21.5532 20.4382 21.8847 18.4541 21.4438V21.4429C13.3801 20.3394 10.9548 14.6041 13.6016 10.1929L13.6045 10.187L13.6719 10.0796C13.7239 9.9891 13.7337 9.94481 13.7295 9.91064C13.7233 9.86098 13.6827 9.78751 13.5215 9.62549L13.1602 9.29443C12.3264 8.51267 11.5614 7.6654 10.8125 6.9165L10.8027 6.90576L10.7939 6.89404C10.6966 6.7481 10.6222 6.70906 10.5645 6.70264ZM20.3184 3.93311C20.0043 3.93343 19.7152 3.96002 19.4473 3.98682C19.1842 4.01313 18.9345 4.03985 18.7109 4.04053L18.7119 4.0415C16.8913 4.1486 15.0675 4.57697 13.3496 5.22119L13.3447 5.22314C13.2684 5.24857 13.2226 5.27036 13.1973 5.2876H13.1963C13.1971 5.28896 13.1973 5.29092 13.1982 5.29248C13.2141 5.31879 13.244 5.35574 13.2949 5.40674L15.5654 7.67725L15.6299 7.73389C15.6929 7.78151 15.7519 7.80316 15.8135 7.81006C15.8992 7.81958 16.0047 7.802 16.1514 7.75439C17.5968 6.83057 19.2335 6.48546 20.8779 6.62646L21.208 6.66162L21.2129 6.6626L21.4688 6.70752C26.8025 7.72942 29.3244 13.5678 26.4014 18.1265C26.3516 18.2271 26.3457 18.2695 26.3506 18.2993C26.356 18.3316 26.3805 18.3849 26.4844 18.4888C27.4572 19.4616 28.4305 20.4339 29.4033 21.4067L29.4707 21.4702C29.5306 21.5206 29.5687 21.5357 29.6025 21.5405C29.6553 21.548 29.7271 21.5334 29.8809 21.4829C32.5577 19.7665 34.6959 17.6264 36.1924 14.8472L36.1953 14.8413L36.2949 14.6567C36.3788 14.4784 36.418 14.3174 36.418 14.1616C36.4179 13.9543 36.3488 13.7384 36.1963 13.4839L35.8398 12.9185C32.1024 7.17167 26.867 4.24527 20.3184 3.93311ZM15.9854 11.9526C15.9654 11.9784 15.9434 12.016 15.918 12.0669L15.9102 12.0825L15.8994 12.0962C15.3916 12.7056 15.2852 13.312 15.2852 14.1616C15.2852 14.2367 15.2848 14.3672 15.3271 14.5552L15.3857 14.7632L15.3896 14.7769L15.3916 14.7905C15.8104 17.9318 19.1612 19.8205 22.2051 18.3511C22.2501 18.3284 22.2743 18.3101 22.2871 18.2974C22.298 18.2865 22.2987 18.2815 22.2988 18.2808C22.2995 18.2771 22.3006 18.2649 22.293 18.2378C22.2858 18.2123 22.2715 18.1806 22.251 18.1382L16.1104 11.9976C16.0635 11.9507 16.0324 11.9326 16.0166 11.9263C16.0149 11.9256 16.0137 11.9247 16.0127 11.9243C16.0086 11.9272 15.9992 11.9347 15.9854 11.9526ZM24.6084 13.4253C24.1893 10.2823 20.8372 8.39601 17.9033 9.75635C17.8533 9.78145 17.8165 9.80306 17.791 9.82275C17.7734 9.8364 17.7657 9.84579 17.7627 9.8501C17.7631 9.85121 17.7639 9.85313 17.7646 9.85498C17.7712 9.87093 17.7896 9.9014 17.8359 9.94775L17.8477 9.95947C17.8516 9.96346 17.8554 9.96818 17.8594 9.97217C17.8634 9.97618 17.8681 9.97987 17.8721 9.98389L17.8838 9.99561C17.8878 9.99961 17.8915 10.0043 17.8955 10.0083C17.8995 10.0123 17.9042 10.016 17.9082 10.02L17.9199 10.0317C17.9239 10.0357 17.9276 10.0404 17.9316 10.0444C17.9357 10.0484 17.9403 10.0521 17.9443 10.0562L17.9561 10.0679C17.9601 10.0719 17.9638 10.0766 17.9678 10.0806C17.9718 10.0846 17.9765 10.0883 17.9805 10.0923L17.9922 10.104C17.9962 10.108 17.9999 10.1127 18.0039 10.1167C18.0079 10.1207 18.0126 10.1244 18.0166 10.1284L18.0283 10.1401C18.0323 10.1441 18.036 10.1488 18.04 10.1528C18.044 10.1568 18.0487 10.1606 18.0527 10.1646L18.293 10.4048C18.297 10.4088 18.3007 10.4135 18.3047 10.4175C18.3087 10.4215 18.3134 10.4252 18.3174 10.4292L18.3291 10.4409C18.3331 10.4449 18.3368 10.4496 18.3408 10.4536C18.3448 10.4576 18.3495 10.4613 18.3535 10.4653L18.3652 10.4771C18.3692 10.4811 18.3729 10.4857 18.377 10.4897C18.381 10.4938 18.3856 10.4975 18.3896 10.5015L18.4014 10.5132C18.4054 10.5172 18.4091 10.5219 18.4131 10.5259C18.4171 10.5299 18.4218 10.5336 18.4258 10.5376L18.4375 10.5493C18.4415 10.5533 18.4452 10.558 18.4492 10.562C18.4532 10.566 18.4579 10.5697 18.4619 10.5737L18.4736 10.5854C18.4776 10.5895 18.4813 10.5941 18.4854 10.5981C18.4893 10.6021 18.4941 10.6059 18.498 10.6099L18.7383 10.8501C18.7423 10.8541 18.746 10.8588 18.75 10.8628C18.754 10.8668 18.7587 10.8705 18.7627 10.8745L18.7744 10.8862C18.7784 10.8902 18.7821 10.8949 18.7861 10.8989C18.7901 10.9029 18.7948 10.9066 18.7988 10.9106L18.8105 10.9224C18.8146 10.9264 18.8183 10.9311 18.8223 10.9351C18.8263 10.9391 18.8309 10.9428 18.835 10.9468L18.8467 10.9585C18.8507 10.9625 18.8544 10.9672 18.8584 10.9712C18.8624 10.9752 18.8671 10.9789 18.8711 10.9829L18.8828 10.9946C18.8868 10.9986 18.8905 11.0033 18.8945 11.0073C18.8985 11.0113 18.9032 11.015 18.9072 11.019L18.9189 11.0308C18.923 11.0348 18.9267 11.0394 18.9307 11.0435C18.9347 11.0474 18.9394 11.0512 18.9434 11.0552L19.1836 11.2954C19.1876 11.2994 19.1913 11.3041 19.1953 11.3081C19.1993 11.3121 19.204 11.3158 19.208 11.3198L19.2197 11.3315C19.2237 11.3355 19.2274 11.3402 19.2314 11.3442C19.2355 11.3483 19.2401 11.3519 19.2441 11.356L19.2559 11.3677C19.2599 11.3717 19.2636 11.3764 19.2676 11.3804C19.2716 11.3844 19.2763 11.3881 19.2803 11.3921L19.292 11.4038C19.296 11.4078 19.2997 11.4125 19.3037 11.4165C19.3077 11.4205 19.3124 11.4242 19.3164 11.4282L19.3281 11.4399C19.3321 11.444 19.3358 11.4486 19.3398 11.4526C19.3438 11.4566 19.3485 11.4604 19.3525 11.4644L19.3643 11.4761C19.3683 11.4801 19.372 11.4848 19.376 11.4888C19.38 11.4928 19.3847 11.4965 19.3887 11.5005L19.6289 11.7407C19.6329 11.7447 19.6366 11.7494 19.6406 11.7534C19.6446 11.7574 19.6493 11.7611 19.6533 11.7651L19.665 11.7769C19.669 11.7809 19.6728 11.7856 19.6768 11.7896C19.6808 11.7936 19.6854 11.7973 19.6895 11.8013L19.7012 11.813C19.7052 11.817 19.7089 11.8217 19.7129 11.8257C19.7169 11.8297 19.7216 11.8334 19.7256 11.8374L19.7373 11.8491C19.7413 11.8531 19.745 11.8578 19.749 11.8618C19.753 11.8658 19.7577 11.8695 19.7617 11.8735L19.7734 11.8853C19.7774 11.8893 19.7811 11.8939 19.7852 11.8979C19.7892 11.9019 19.7939 11.9057 19.7979 11.9097L19.8096 11.9214C19.8136 11.9254 19.8173 11.9301 19.8213 11.9341C19.8253 11.9381 19.83 11.9418 19.834 11.9458L20.0742 12.186C20.0782 12.19 20.0819 12.1947 20.0859 12.1987C20.0899 12.2027 20.0946 12.2064 20.0986 12.2104L20.1104 12.2222C20.1144 12.2262 20.1181 12.2309 20.1221 12.2349C20.1261 12.2389 20.1308 12.2426 20.1348 12.2466L20.1465 12.2583C20.1505 12.2623 20.1542 12.267 20.1582 12.271C20.1622 12.275 20.1669 12.2787 20.1709 12.2827L20.1826 12.2944C20.1866 12.2984 20.1903 12.3031 20.1943 12.3071C20.1983 12.3111 20.203 12.3148 20.207 12.3188L20.2188 12.3306C20.2228 12.3346 20.2265 12.3392 20.2305 12.3433C20.2345 12.3473 20.2392 12.351 20.2432 12.355L20.2549 12.3667C20.2589 12.3707 20.2626 12.3754 20.2666 12.3794C20.2706 12.3834 20.2753 12.3871 20.2793 12.3911L20.5195 12.6313C20.5235 12.6353 20.5273 12.6401 20.5312 12.644C20.5353 12.6481 20.5399 12.6517 20.5439 12.6558L20.5557 12.6675C20.5597 12.6715 20.5634 12.6762 20.5674 12.6802C20.5714 12.6842 20.5761 12.6879 20.5801 12.6919L20.5918 12.7036C20.5958 12.7076 20.5995 12.7123 20.6035 12.7163C20.6075 12.7203 20.6122 12.724 20.6162 12.728L20.6279 12.7397C20.6319 12.7438 20.6356 12.7484 20.6396 12.7524C20.6437 12.7564 20.6483 12.7602 20.6523 12.7642L20.6641 12.7759C20.6681 12.7799 20.6718 12.7846 20.6758 12.7886C20.6798 12.7926 20.6845 12.7963 20.6885 12.8003L20.7002 12.812C20.7042 12.816 20.7079 12.8207 20.7119 12.8247C20.7159 12.8287 20.7206 12.8324 20.7246 12.8364L20.9648 13.0767C20.9688 13.0807 20.9726 13.0854 20.9766 13.0894C20.9806 13.0934 20.9852 13.0971 20.9893 13.1011L21.001 13.1128C21.005 13.1168 21.0087 13.1215 21.0127 13.1255C21.0167 13.1295 21.0214 13.1332 21.0254 13.1372L21.0371 13.1489C21.0411 13.1529 21.0448 13.1576 21.0488 13.1616C21.0528 13.1656 21.0575 13.1693 21.0615 13.1733L21.0732 13.1851C21.0773 13.1891 21.0809 13.1937 21.085 13.1978C21.089 13.2018 21.0936 13.2055 21.0977 13.2095L21.1094 13.2212C21.1134 13.2252 21.1171 13.2299 21.1211 13.2339C21.1251 13.2379 21.1298 13.2416 21.1338 13.2456L21.1455 13.2573C21.1495 13.2613 21.1532 13.266 21.1572 13.27C21.1612 13.274 21.1659 13.2777 21.1699 13.2817L21.4102 13.522C21.4141 13.526 21.4179 13.5307 21.4219 13.5347C21.4259 13.5387 21.4306 13.5424 21.4346 13.5464L21.4463 13.5581C21.4503 13.5621 21.454 13.5668 21.458 13.5708C21.462 13.5748 21.4667 13.5785 21.4707 13.5825L21.4824 13.5942C21.4864 13.5982 21.4901 13.6029 21.4941 13.6069C21.4982 13.6109 21.5028 13.6146 21.5068 13.6187L21.5186 13.6304C21.5226 13.6344 21.5263 13.6391 21.5303 13.6431C21.5343 13.6471 21.539 13.6508 21.543 13.6548L21.5547 13.6665C21.5587 13.6705 21.5624 13.6752 21.5664 13.6792C21.5704 13.6832 21.5751 13.6869 21.5791 13.6909L21.5908 13.7026C21.5948 13.7066 21.5985 13.7113 21.6025 13.7153C21.6065 13.7193 21.6112 13.7231 21.6152 13.7271L21.8555 13.9673C21.8595 13.9713 21.8632 13.976 21.8672 13.98C21.8712 13.984 21.8759 13.9877 21.8799 13.9917L21.8916 14.0034C21.8956 14.0074 21.8993 14.0121 21.9033 14.0161C21.9073 14.0201 21.912 14.0238 21.916 14.0278L21.9277 14.0396C21.9317 14.0436 21.9354 14.0482 21.9395 14.0522C21.9435 14.0563 21.9481 14.06 21.9521 14.064L21.9639 14.0757C21.9679 14.0797 21.9716 14.0844 21.9756 14.0884C21.9796 14.0924 21.9843 14.0961 21.9883 14.1001L22 14.1118C22.004 14.1158 22.0077 14.1205 22.0117 14.1245C22.0157 14.1285 22.0204 14.1322 22.0244 14.1362L22.0361 14.1479C22.0401 14.152 22.0438 14.1566 22.0479 14.1606C22.0518 14.1646 22.0566 14.1684 22.0605 14.1724L22.3008 14.4126C22.3048 14.4166 22.3085 14.4213 22.3125 14.4253C22.3165 14.4293 22.3212 14.433 22.3252 14.437L22.3369 14.4487C22.3409 14.4527 22.3446 14.4574 22.3486 14.4614C22.3526 14.4654 22.3573 14.4691 22.3613 14.4731L22.373 14.4849C22.3771 14.4889 22.3808 14.4936 22.3848 14.4976C22.3888 14.5016 22.3934 14.5053 22.3975 14.5093L22.4092 14.521C22.4132 14.525 22.4169 14.5297 22.4209 14.5337C22.4249 14.5377 22.4296 14.5414 22.4336 14.5454L22.4453 14.5571C22.4493 14.5611 22.453 14.5658 22.457 14.5698C22.461 14.5738 22.4657 14.5775 22.4697 14.5815L22.4814 14.5933C22.4855 14.5973 22.4892 14.6019 22.4932 14.606C22.4972 14.6099 22.5019 14.6137 22.5059 14.6177L22.7461 14.8579C22.7501 14.8619 22.7538 14.8666 22.7578 14.8706C22.7618 14.8746 22.7665 14.8783 22.7705 14.8823L22.7822 14.894C22.7862 14.898 22.7899 14.9027 22.7939 14.9067C22.798 14.9108 22.8026 14.9144 22.8066 14.9185L22.8184 14.9302C22.8224 14.9342 22.8261 14.9389 22.8301 14.9429C22.8341 14.9469 22.8388 14.9506 22.8428 14.9546L22.8545 14.9663C22.8585 14.9703 22.8622 14.975 22.8662 14.979C22.8702 14.983 22.8749 14.9867 22.8789 14.9907L22.8906 15.0024C22.8946 15.0065 22.8983 15.0111 22.9023 15.0151C22.9063 15.0191 22.911 15.0229 22.915 15.0269L22.9268 15.0386C22.9308 15.0426 22.9345 15.0473 22.9385 15.0513C22.9425 15.0553 22.9472 15.059 22.9512 15.063L23.1914 15.3032C23.1954 15.3072 23.1991 15.3119 23.2031 15.3159C23.2071 15.3199 23.2118 15.3236 23.2158 15.3276L23.2275 15.3394C23.2315 15.3434 23.2353 15.3481 23.2393 15.3521C23.2433 15.3561 23.2479 15.3598 23.252 15.3638L23.2637 15.3755C23.2677 15.3795 23.2714 15.3842 23.2754 15.3882C23.2794 15.3922 23.2841 15.3959 23.2881 15.3999L23.2998 15.4116C23.3038 15.4156 23.3075 15.4203 23.3115 15.4243C23.3155 15.4283 23.3202 15.432 23.3242 15.436L23.3359 15.4478C23.3399 15.4518 23.3436 15.4564 23.3477 15.4604C23.3517 15.4644 23.3564 15.4682 23.3604 15.4722L23.3721 15.4839C23.3761 15.4879 23.3798 15.4926 23.3838 15.4966C23.3878 15.5006 23.3925 15.5043 23.3965 15.5083L23.6367 15.7485C23.6407 15.7525 23.6444 15.7572 23.6484 15.7612C23.6524 15.7652 23.6571 15.7689 23.6611 15.7729L23.6729 15.7847C23.6769 15.7887 23.6806 15.7934 23.6846 15.7974C23.6886 15.8014 23.6933 15.8051 23.6973 15.8091L23.709 15.8208C23.713 15.8248 23.7167 15.8295 23.7207 15.8335C23.7247 15.8375 23.7294 15.8412 23.7334 15.8452L23.7451 15.8569C23.7491 15.8609 23.7528 15.8656 23.7568 15.8696C23.7608 15.8736 23.7655 15.8773 23.7695 15.8813L23.7812 15.8931C23.7853 15.8971 23.789 15.9017 23.793 15.9058C23.797 15.9098 23.8017 15.9135 23.8057 15.9175L23.8174 15.9292C23.8214 15.9332 23.8251 15.9379 23.8291 15.9419C23.8331 15.9459 23.8378 15.9496 23.8418 15.9536L23.998 16.1099L24.0645 16.1724C24.0833 16.1882 24.0992 16.1996 24.1123 16.2075L24.1152 16.2085L24.1172 16.2075C24.1344 16.1822 24.1562 16.1363 24.1816 16.0601L24.1904 16.0347L24.207 16.0142C24.6051 15.5165 24.7148 14.8059 24.7148 13.9458C24.7148 13.839 24.714 13.6542 24.623 13.4722L24.6113 13.4497L24.6084 13.4253Z" fill="#7485E6" stroke="#7485E6" stroke-width="0.3"/>
</svg>
