<svg width="30" height="22" viewBox="0 0 30 22" fill="none" xmlns="http://www.w3.org/2000/svg">
<path d="M10.1699 6.44141L18.9999 11.5514L27.7699 6.47141" stroke="white" stroke-width="1.8" stroke-linecap="round" stroke-linejoin="round"/>
<path d="M19 20.611V11.541" stroke="white" stroke-width="1.8" stroke-linecap="round" stroke-linejoin="round"/>
<path d="M16.9296 1.48126L11.5896 4.44126C10.3796 5.11126 9.38965 6.79126 9.38965 8.17126V13.8213C9.38965 15.2013 10.3796 16.8813 11.5896 17.5513L16.9296 20.5213C18.0696 21.1513 19.9396 21.1513 21.0796 20.5213L26.4196 17.5513C27.6296 16.8813 28.6196 15.2013 28.6196 13.8213V8.17126C28.6196 6.79126 27.6296 5.11126 26.4196 4.44126L21.0796 1.47126C19.9296 0.841257 18.0696 0.841257 16.9296 1.48126Z" stroke="white" stroke-width="1.8" stroke-linecap="round" stroke-linejoin="round"/>
<path d="M9 7.50195H2M8.5 12.002H3M10 16.502H1" stroke="white" stroke-width="1.8" stroke-linecap="round"/>
</svg>
