<svg width="30" height="30" viewBox="0 0 30 30" fill="none" xmlns="http://www.w3.org/2000/svg">
<path d="M21.5028 0.398438H9.34569C4.06506 0.398438 0.916992 3.55944 0.916992 8.83744V20.9739C0.916992 26.2519 4.06506 29.3984 9.34569 29.3984H21.4882C26.7689 29.3984 29.9169 26.2519 29.9169 20.9739V8.83744C29.9314 3.55944 26.7834 0.398438 21.5028 0.398438ZM14.8004 21.8439C14.8004 22.2789 14.5828 22.6704 14.2056 22.9024C14.0025 23.0329 13.7849 23.0909 13.5528 23.0909C13.3642 23.0909 13.1756 23.0474 12.987 22.9604L7.90948 20.4229C7.18412 20.0459 6.71988 19.3064 6.71988 18.4799V13.6804C6.71988 13.2454 6.93749 12.8539 7.31468 12.6219C7.69187 12.3899 8.14159 12.3754 8.53329 12.5639L13.6108 15.1014C14.3507 15.4784 14.8149 16.2179 14.8149 17.0444V21.8439H14.8004ZM14.4958 14.0864L9.04104 11.1429C8.64935 10.9254 8.40272 10.5049 8.40272 10.0264C8.40272 9.56244 8.64935 9.12744 9.04104 8.90994L14.4958 5.96644C15.076 5.66194 15.7579 5.66194 16.3382 5.96644L21.7929 8.90994C22.1846 9.12744 22.4312 9.54794 22.4312 10.0264C22.4312 10.5049 22.1846 10.9254 21.7929 11.1429L16.3382 14.0864C16.048 14.2459 15.7289 14.3184 15.4097 14.3184C15.0906 14.3184 14.7859 14.2459 14.4958 14.0864ZM24.1286 18.4799C24.1286 19.3064 23.6643 20.0604 22.9245 20.4229L17.8469 22.9604C17.6728 23.0474 17.4842 23.0909 17.2811 23.0909C17.049 23.0909 16.8314 23.0329 16.6283 22.9024C16.2511 22.6704 16.0335 22.2789 16.0335 21.8439V17.0444C16.0335 16.2179 16.4978 15.4639 17.2376 15.1014L22.3152 12.5639C22.7069 12.3754 23.1566 12.3899 23.5338 12.6219C23.911 12.8539 24.1286 13.2454 24.1286 13.6804V18.4799Z" fill="#7485E6"/>
</svg>
