<svg width="25" height="24" viewBox="0 0 25 24" fill="none" xmlns="http://www.w3.org/2000/svg">
<path d="M19.3954 10.653V15.0459C19.3954 15.3314 19.3838 15.606 19.3493 15.8696C19.0846 18.8347 17.2542 20.3063 13.8814 20.3063H13.4209C13.1331 20.3063 12.8568 20.4381 12.6842 20.6578L11.3028 22.4149C10.6927 23.1947 9.70268 23.1947 9.09257 22.4149L7.71118 20.6578C7.56153 20.4711 7.22772 20.3063 6.97447 20.3063H6.51401C2.84185 20.3063 1 19.4388 1 15.0459V10.653C1 7.43527 2.55406 5.68911 5.65065 5.43652C5.92693 5.40357 6.21471 5.39258 6.51401 5.39258H13.8814C17.5535 5.39258 19.3954 7.14973 19.3954 10.653Z" stroke="white" stroke-width="1.5" stroke-miterlimit="10" stroke-linecap="round" stroke-linejoin="round"/>
<path d="M23.9997 6.26046V10.6533C23.9997 13.8821 22.4456 15.6173 19.3491 15.8698C19.3836 15.6063 19.3951 15.3317 19.3951 15.0462V10.6533C19.3951 7.15002 17.5533 5.39286 13.8811 5.39286H6.51375C6.21445 5.39286 5.92667 5.40385 5.65039 5.4368C5.91515 2.4826 7.74548 1 11.1183 1H18.4857C22.1579 1 23.9997 2.75715 23.9997 6.26046Z" stroke="white" stroke-width="1.5" stroke-miterlimit="10" stroke-linecap="round" stroke-linejoin="round"/>
<path d="M14.2335 13.3557H14.2438" stroke="white" stroke-width="2" stroke-linecap="round" stroke-linejoin="round"/>
<path d="M10.2042 13.3557H10.2145" stroke="white" stroke-width="2" stroke-linecap="round" stroke-linejoin="round"/>
<path d="M6.17489 13.3557H6.18525" stroke="white" stroke-width="2" stroke-linecap="round" stroke-linejoin="round"/>
</svg>
