<svg width="34" height="26" viewBox="0 0 34 26" fill="none" xmlns="http://www.w3.org/2000/svg">
<path d="M11.624 7.3042L21.8544 13.2246L32.0153 7.33896" stroke="#7485E6" stroke-width="2" stroke-linecap="round" stroke-linejoin="round"/>
<path d="M21.8555 23.7214V13.2129" stroke="#7485E6" stroke-width="2" stroke-linecap="round" stroke-linejoin="round"/>
<path d="M19.4555 1.55758L13.2686 4.98702C11.8667 5.76328 10.7197 7.70972 10.7197 9.30859V15.8546C10.7197 17.4535 11.8667 19.3999 13.2686 20.1762L19.4555 23.6172C20.7763 24.3472 22.9429 24.3472 24.2637 23.6172L30.4506 20.1762C31.8525 19.3999 32.9995 17.4535 32.9995 15.8546V9.30859C32.9995 7.70972 31.8525 5.76328 30.4506 4.98702L24.2637 1.546C22.9313 0.816082 20.7763 0.816082 19.4555 1.55758Z" stroke="#7485E6" stroke-width="2" stroke-linecap="round" stroke-linejoin="round"/>
<path d="M10.2688 8.53223H2.1586M9.68947 13.7459H3.31719M11.4274 18.9596H1" stroke="#7485E6" stroke-width="2" stroke-linecap="round"/>
</svg>
