<svg width="25" height="23" viewBox="0 0 25 23" fill="none" xmlns="http://www.w3.org/2000/svg">
<path d="M2.47363 10.6797V15.3942C2.47363 20.1087 4.52471 21.9987 9.641 21.9987H15.7828C20.8991 21.9987 22.9502 20.1087 22.9502 15.3942V10.6797" stroke="white" stroke-width="2" stroke-linecap="round" stroke-linejoin="round"/>
<path d="M12.7181 11.5C14.8033 11.5 16.3416 9.9355 16.1365 8.014L15.3845 1H10.0631L9.2996 8.014C9.09449 9.9355 10.6328 11.5 12.7181 11.5Z" stroke="white" stroke-width="2" stroke-linecap="round" stroke-linejoin="round"/>
<path d="M19.9092 11.5C22.2109 11.5 23.8974 9.778 23.6695 7.6675L23.3504 4.78C22.9402 2.05 21.8007 1 18.8153 1H15.3398L16.1375 8.3605C16.3312 10.093 18.029 11.5 19.9092 11.5Z" stroke="white" stroke-width="2" stroke-linecap="round" stroke-linejoin="round"/>
<path d="M5.47136 11.5C7.35152 11.5 9.04935 10.093 9.23167 8.3605L9.48235 6.04L10.0293 1H6.55388C3.56842 1 2.42894 2.05 2.01872 4.78L1.71106 7.6675C1.48316 9.778 3.1696 11.5 5.47136 11.5Z" stroke="white" stroke-width="2" stroke-linecap="round" stroke-linejoin="round"/>
<path d="M12.7179 16.75C10.8149 16.75 9.86914 17.6215 9.86914 19.375V22H15.5666V19.375C15.5666 17.6215 14.6208 16.75 12.7179 16.75Z" stroke="white" stroke-width="2" stroke-linecap="round" stroke-linejoin="round"/>
</svg>
