<svg width="26" height="25" viewBox="0 0 26 25" fill="none" xmlns="http://www.w3.org/2000/svg">
<path d="M22.5311 12.7307V14.6858C22.5311 18.3083 20.4611 19.8608 17.3561 19.8608H7.00606C3.90105 19.8608 1.83105 18.3083 1.83105 14.6858V8.47578C1.83105 4.85328 3.90105 3.30078 7.00606 3.30078H10.1111C9.96156 3.73778 9.88106 4.22078 9.88106 4.73828V9.22331C9.88106 10.3388 10.2491 11.2818 10.9046 11.9373C11.5601 12.5928 12.5031 12.9608 13.6186 12.9608V14.5593C13.6186 15.1458 14.2856 15.5022 14.7801 15.1802L18.1036 12.9608H21.0936C21.6111 12.9608 22.0941 12.8802 22.5311 12.7307Z" stroke="white" stroke-width="1.8" stroke-miterlimit="10" stroke-linecap="round" stroke-linejoin="round"/>
<path d="M24.8318 4.7375V9.22253C24.8318 10.936 23.9578 12.2239 22.5318 12.7299C22.0948 12.8794 21.6118 12.96 21.0943 12.96H18.1043L14.7808 15.1794C14.2863 15.5014 13.6193 15.145 13.6193 14.5585V12.96C12.5038 12.96 11.5608 12.592 10.9053 11.9365C10.2498 11.281 9.88184 10.338 9.88184 9.22253V4.7375C9.88184 4.22 9.96234 3.737 10.1118 3.3C10.6178 1.874 11.9058 1 13.6193 1H21.0943C23.3368 1 24.8318 2.495 24.8318 4.7375Z" stroke="white" stroke-width="1.8" stroke-miterlimit="10" stroke-linecap="round" stroke-linejoin="round"/>
<path d="M8.04102 24H16.321" stroke="white" stroke-width="1.8" stroke-miterlimit="10" stroke-linecap="round" stroke-linejoin="round"/>
<path d="M12.1807 19.8613V24.0013" stroke="white" stroke-width="1.8" stroke-miterlimit="10" stroke-linecap="round" stroke-linejoin="round"/>
<path d="M20.8013 7.03789H20.8116" stroke="white" stroke-width="1.8" stroke-linecap="round" stroke-linejoin="round"/>
<path d="M17.5806 7.03789H17.5909" stroke="white" stroke-width="1.8" stroke-linecap="round" stroke-linejoin="round"/>
<path d="M14.3608 7.03789H14.3712" stroke="white" stroke-width="1.8" stroke-linecap="round" stroke-linejoin="round"/>
</svg>
