<svg width="24" height="24" viewBox="0 0 24 24" fill="none" xmlns="http://www.w3.org/2000/svg">
<path d="M13.9114 2.59023L15.8503 6.49399C16.1115 7.03387 16.8128 7.54607 17.4041 7.65681L20.9106 8.23823C23.152 8.61199 23.6745 10.2455 22.0657 11.879L19.3293 14.6337C18.8755 15.0906 18.6142 15.9904 18.7655 16.641L19.5493 20.0464C20.1681 22.732 18.738 23.784 16.3866 22.3721L13.1001 20.4063C12.5088 20.0464 11.5187 20.0464 10.9274 20.4063L7.64095 22.3721C5.28954 23.7702 3.85944 22.732 4.47824 20.0464L5.26204 16.641C5.3858 15.9765 5.12453 15.0767 4.67075 14.6199L1.93431 11.8651C0.325453 10.2455 0.847989 8.61199 3.08939 8.22438L6.59588 7.64297C7.18717 7.54607 7.88847 7.02003 8.14974 6.48015L10.0886 2.57639C11.1474 0.472235 12.8526 0.472235 13.9114 2.59023Z" stroke="#E27220" stroke-width="2"/>
</svg>
