<svg width="27" height="26" viewBox="0 0 27 26" fill="none" xmlns="http://www.w3.org/2000/svg">
<path d="M16.1742 1.87937L18.4734 6.4929C18.7832 7.13094 19.6149 7.73626 20.316 7.86714L24.4742 8.55427C27.1322 8.99599 27.7518 10.9265 25.8439 12.857L22.599 16.1126C22.0608 16.6525 21.751 17.7159 21.9304 18.4848L22.8599 22.5094C23.5936 25.6832 21.8978 26.9266 19.1094 25.2579L15.2121 22.9348C14.5109 22.5094 13.3369 22.5094 12.6357 22.9348L8.73843 25.2579C5.95002 26.9102 4.25414 25.6832 4.98793 22.5094L5.91741 18.4848C6.06416 17.6995 5.75434 16.6361 5.21623 16.0963L1.97123 12.8406C0.063372 10.9265 0.683019 8.99599 3.34098 8.53791L7.49914 7.85078C8.20031 7.73626 9.03195 7.11458 9.34177 6.47654L11.641 1.86301C12.8966 -0.623722 14.9186 -0.623722 16.1742 1.87937Z" fill="#E27220"/>
</svg>
