<svg width="65" height="65" viewBox="0 0 65 65" fill="none" xmlns="http://www.w3.org/2000/svg">
<path d="M32.5003 5.41602C17.5774 5.41602 5.41699 17.5764 5.41699 32.4994C5.41699 47.4223 17.5774 59.5827 32.5003 59.5827C47.4232 59.5827 59.5837 47.4223 59.5837 32.4994C59.5837 17.5764 47.4232 5.41602 32.5003 5.41602ZM45.4462 26.2702L30.0899 41.6264C29.7107 42.0056 29.1962 42.2223 28.6545 42.2223C28.1128 42.2223 27.5982 42.0056 27.2191 41.6264L19.5545 33.9619C18.7691 33.1764 18.7691 31.8764 19.5545 31.091C20.3399 30.3056 21.6399 30.3056 22.4253 31.091L28.6545 37.3202L42.5753 23.3994C43.3607 22.6139 44.6607 22.6139 45.4462 23.3994C46.2316 24.1848 46.2316 25.4577 45.4462 26.2702Z" fill="#3BBB2A"/>
</svg>
