<svg width="45" height="42" viewBox="0 0 45 42" fill="none" xmlns="http://www.w3.org/2000/svg">
<g clip-path="url(#clip0_1846_34504)">
<path d="M8.11227 26.3342C8.11227 28.3275 6.38802 29.9559 4.26805 29.9559C2.14807 29.9559 0.423828 28.3275 0.423828 26.3342V5.16579C0.423828 3.17247 2.14807 1.54413 4.26805 1.54413C6.38802 1.54413 8.11227 3.17247 8.11227 5.16579V26.3342Z" fill="white"/>
<path d="M16.1119 17.3784C13.9919 17.3784 12.2959 19.0067 12.2959 20.9719V26.1658C12.2959 30.2647 8.96048 33.6618 4.74879 33.8583C4.60746 33.8583 4.46613 33.8583 4.35306 33.8583C2.23309 33.8583 0.537109 35.4586 0.537109 37.4519C0.537109 39.4452 2.23309 41.0455 4.35306 41.0455C4.80533 41.0455 5.25759 41.0174 5.70985 40.9893C13.7092 40.3155 19.9561 33.7741 19.9561 26.0535V20.9719C19.9278 18.9786 18.2036 17.3784 16.1119 17.3784Z" fill="white"/>
<path d="M39.4311 8.14171H36.2652C34.7389 8.14171 33.5234 6.99064 33.5234 5.55882V4.29545C33.5234 2.30214 31.7992 0.673798 29.6792 0.673798C27.5592 0.673798 25.835 2.30214 25.835 4.29545V6.34492V6.373V6.45722C25.9198 11.3422 30.1032 15.3008 35.3042 15.357H39.4311C41.551 15.357 43.2753 13.7286 43.2753 11.7353C43.2753 9.77005 41.551 8.14171 39.4311 8.14171Z" fill="white"/>
<path d="M36.8878 21C36.8878 19.0067 38.6121 17.3784 40.732 17.3784C42.852 17.3784 44.5763 19.0067 44.5763 21V24.2848C44.5763 26.9238 43.4173 29.3382 41.58 31.0789C39.7427 32.8195 37.1705 33.8864 34.3721 33.8864C31.5737 33.8864 29.0298 32.8195 27.1642 31.0789C25.3269 29.3382 24.168 26.9519 24.168 24.2848V5.16579C24.168 3.17247 25.8922 1.54413 28.0122 1.54413C30.1322 1.54413 31.8564 3.17247 31.8564 5.16579V24.2848C31.8564 24.9305 32.1391 25.5201 32.5913 25.9412C33.0436 26.3623 33.6655 26.6431 34.3438 26.6431C35.0222 26.6431 35.6441 26.3904 36.0964 25.9412C36.5486 25.5201 36.8313 24.9305 36.8313 24.2848L36.8878 21Z" fill="white"/>
<path d="M39.4311 8.14171H36.2652C34.7389 8.14171 33.5234 6.99064 33.5234 5.55882V4.29545C33.5234 2.30214 31.7992 0.673798 29.6792 0.673798C27.5592 0.673798 25.835 2.30214 25.835 4.29545V6.34492V6.373V6.45722C25.9198 11.3422 30.1032 15.3008 35.3042 15.357H39.4311C41.551 15.357 43.2753 13.7286 43.2753 11.7353C43.2753 9.77005 41.551 8.14171 39.4311 8.14171Z" fill="white"/>
</g>
<defs>
<clipPath id="clip0_1846_34504">
<rect width="45" height="42" fill="white"/>
</clipPath>
</defs>
</svg>
