<svg width="25" height="23" viewBox="0 0 25 23" fill="none" xmlns="http://www.w3.org/2000/svg">
<path d="M24.0005 6.47619V13.0476C24.0005 14.6905 23.4528 16.0595 22.489 17.0233C21.5362 17.9762 20.1671 18.5238 18.5243 18.5238V20.8567C18.5243 21.7329 17.5495 22.2586 16.8267 21.7767L11.9528 18.5238H9.63095C9.71857 18.1952 9.76237 17.8557 9.76237 17.5052C9.76237 16.3881 9.33523 15.3586 8.63428 14.581C7.8457 13.6829 6.6738 13.1243 5.38142 13.1243C4.15475 13.1243 3.03761 13.6281 2.23809 14.4496C2.13952 14.0115 2.0957 13.5405 2.0957 13.0476V6.47619C2.0957 3.19048 4.28618 1 7.57189 1H18.5243C21.81 1 24.0005 3.19048 24.0005 6.47619Z" stroke="white" stroke-width="1.8" stroke-miterlimit="10" stroke-linecap="round" stroke-linejoin="round"/>
<path d="M9.7619 17.506C9.7619 17.8564 9.7181 18.1959 9.63048 18.5245C9.53191 18.9626 9.35668 19.3898 9.12668 19.7621C8.37097 21.0326 6.98 21.8869 5.38095 21.8869C4.25286 21.8869 3.23428 21.4597 2.46762 20.7588C2.13904 20.474 1.85427 20.1345 1.63522 19.7621C1.22999 19.105 1 18.3274 1 17.506C1 16.3231 1.47096 15.2388 2.23762 14.4503C3.03715 13.6288 4.15429 13.125 5.38095 13.125C6.67333 13.125 7.84524 13.6836 8.63381 14.5817C9.33476 15.3593 9.7619 16.3888 9.7619 17.506Z" stroke="white" stroke-width="1.8" stroke-miterlimit="10" stroke-linecap="round" stroke-linejoin="round"/>
<path d="M7.01281 17.4824H3.74902" stroke="white" stroke-width="1.5" stroke-miterlimit="10" stroke-linecap="round" stroke-linejoin="round"/>
<path d="M5.38086 15.8848V19.1595" stroke="white" stroke-width="1.5" stroke-miterlimit="10" stroke-linecap="round" stroke-linejoin="round"/>
<path d="M9.21387 9.83984H16.8805" stroke="white" stroke-width="1.8" stroke-miterlimit="10" stroke-linecap="round" stroke-linejoin="round"/>
</svg>
