<svg width="48" height="48" viewBox="0 0 48 48" fill="none" xmlns="http://www.w3.org/2000/svg">
<path d="M42.1393 10.46C38.9193 10.14 35.6993 9.9 32.4593 9.72V9.7L32.0193 7.1C31.7193 5.26 31.2793 2.5 26.5993 2.5H21.3593C16.6993 2.5 16.2593 5.14 15.9393 7.08L15.5193 9.64C13.6593 9.76 11.7993 9.88 9.93934 10.06L5.85934 10.46C5.01934 10.54 4.41934 11.28 4.49934 12.1C4.57934 12.92 5.29934 13.52 6.13934 13.44L10.2193 13.04C20.6993 12 31.2593 12.4 41.8593 13.46C41.9193 13.46 41.9593 13.46 42.0193 13.46C42.7793 13.46 43.4393 12.88 43.5193 12.1C43.5793 11.28 42.9793 10.54 42.1393 10.46Z" fill="#DE4949"/>
<path d="M38.4595 16.28C37.9795 15.78 37.3195 15.5 36.6395 15.5H11.3595C10.6795 15.5 9.9995 15.78 9.5395 16.28C9.0795 16.78 8.8195 17.46 8.8595 18.16L10.0995 38.68C10.3195 41.72 10.5995 45.52 17.5795 45.52H30.4195C37.3995 45.52 37.6795 41.74 37.8995 38.68L39.1395 18.18C39.1795 17.46 38.9195 16.78 38.4595 16.28ZM27.3195 35.5H20.6595C19.8395 35.5 19.1595 34.82 19.1595 34C19.1595 33.18 19.8395 32.5 20.6595 32.5H27.3195C28.1395 32.5 28.8195 33.18 28.8195 34C28.8195 34.82 28.1395 35.5 27.3195 35.5ZM28.9995 27.5H18.9995C18.1795 27.5 17.4995 26.82 17.4995 26C17.4995 25.18 18.1795 24.5 18.9995 24.5H28.9995C29.8195 24.5 30.4995 25.18 30.4995 26C30.4995 26.82 29.8195 27.5 28.9995 27.5Z" fill="#DE4949"/>
</svg>
