<svg width="36" height="35" viewBox="0 0 36 35" fill="none" xmlns="http://www.w3.org/2000/svg">
<path d="M32.4976 28.5353C30.6505 25.2936 27.7663 22.7677 24.3093 21.3642C26.0285 20.0748 27.2983 18.2773 27.9391 16.2261C28.5798 14.1749 28.5589 11.9741 27.8794 9.9355C27.1998 7.89685 25.8961 6.1237 24.1528 4.8672C22.4095 3.61071 20.315 2.93457 18.1661 2.93457C16.0172 2.93457 13.9227 3.61071 12.1794 4.8672C10.4362 6.1237 9.13239 7.89685 8.45284 9.9355C7.77329 11.9741 7.75241 14.1749 8.39315 16.2261C9.03389 18.2773 10.3038 20.0748 12.0229 21.3642C8.56589 22.7677 5.68171 25.2936 3.83465 28.5353C3.7202 28.7193 3.64392 28.9245 3.61034 29.1386C3.57676 29.3527 3.58658 29.5714 3.6392 29.7816C3.69182 29.9918 3.78617 30.1893 3.91665 30.3624C4.04713 30.5354 4.21106 30.6805 4.39871 30.7889C4.58636 30.8973 4.79389 30.9669 5.00897 30.9935C5.22405 31.0201 5.44228 31.0032 5.65069 30.9438C5.85911 30.8843 6.05344 30.7836 6.22215 30.6476C6.39087 30.5116 6.53051 30.343 6.63277 30.1519C9.07389 25.9325 13.3849 23.416 18.1661 23.416C22.9473 23.416 27.2583 25.9339 29.6994 30.1519C29.9211 30.5083 30.2726 30.7645 30.6797 30.8664C31.0868 30.9683 31.5176 30.9079 31.881 30.698C32.2444 30.488 32.5119 30.145 32.6269 29.7414C32.742 29.3378 32.6956 28.9053 32.4976 28.5353ZM11.1607 13.1773C11.1607 11.7918 11.5716 10.4373 12.3413 9.28529C13.1111 8.13326 14.2052 7.23536 15.4853 6.70513C16.7653 6.17491 18.1739 6.03618 19.5328 6.30649C20.8917 6.57679 22.14 7.24399 23.1197 8.22372C24.0994 9.20344 24.7666 10.4517 25.0369 11.8106C25.3072 13.1695 25.1685 14.5781 24.6383 15.8581C24.108 17.1382 23.2101 18.2323 22.0581 19.0021C20.9061 19.7718 19.5516 20.1827 18.1661 20.1827C16.3088 20.1806 14.5282 19.4418 13.2149 18.1285C11.9016 16.8152 11.1628 15.0346 11.1607 13.1773Z" fill="#7485E6"/>
</svg>
