<svg width="55" height="55" viewBox="0 0 55 55" fill="none" xmlns="http://www.w3.org/2000/svg">
<path d="M49.8657 36.4835L35.199 10.0835C33.2282 6.53141 30.5011 4.5835 27.499 4.5835C24.497 4.5835 21.7699 6.53141 19.799 10.0835L5.13237 36.4835C3.27612 39.8522 3.06987 43.0835 4.55945 45.6272C6.04903 48.171 8.98237 49.5689 12.8324 49.5689H42.1657C46.0157 49.5689 48.949 48.171 50.4386 45.6272C51.9282 43.0835 51.722 39.8293 49.8657 36.4835ZM25.7803 20.6252C25.7803 19.6856 26.5595 18.9064 27.499 18.9064C28.4386 18.9064 29.2178 19.6856 29.2178 20.6252V32.0835C29.2178 33.0231 28.4386 33.8022 27.499 33.8022C26.5595 33.8022 25.7803 33.0231 25.7803 32.0835V20.6252ZM29.1261 40.5856C29.0115 40.6772 28.8969 40.7689 28.7824 40.8606C28.6449 40.9522 28.5074 41.021 28.3699 41.0668C28.2324 41.1356 28.0949 41.1814 27.9344 41.2043C27.7969 41.2272 27.6365 41.2502 27.499 41.2502C27.3615 41.2502 27.2011 41.2272 27.0407 41.2043C26.9032 41.1814 26.7657 41.1356 26.6282 41.0668C26.4907 41.021 26.3532 40.9522 26.2157 40.8606C26.1011 40.7689 25.9865 40.6772 25.872 40.5856C25.4594 40.1502 25.2074 39.5543 25.2074 38.9585C25.2074 38.3627 25.4594 37.7668 25.872 37.3314C25.9865 37.2397 26.1011 37.1481 26.2157 37.0564C26.3532 36.9647 26.4907 36.896 26.6282 36.8502C26.7657 36.7814 26.9032 36.7356 27.0407 36.7127C27.3386 36.6439 27.6594 36.6439 27.9344 36.7127C28.0949 36.7356 28.2324 36.7814 28.3699 36.8502C28.5074 36.896 28.6449 36.9647 28.7824 37.0564C28.8969 37.1481 29.0115 37.2397 29.1261 37.3314C29.5386 37.7668 29.7907 38.3627 29.7907 38.9585C29.7907 39.5543 29.5386 40.1502 29.1261 40.5856Z" fill="#DAA51A"/>
</svg>
