<svg width="26" height="20" viewBox="0 0 26 20" fill="none" xmlns="http://www.w3.org/2000/svg">
<g clip-path="url(#clip0_3265_22539)">
<path d="M14.8544 15.6385C15.8677 16.613 15.8677 18.2221 14.8544 19.2306C14.3362 19.7405 13.6799 20.0011 13.0005 20.0011C12.3212 20.0011 11.6764 19.7405 11.1467 19.2532C10.1334 18.2561 10.1334 16.6357 11.1467 15.6385C12.16 14.6413 13.8296 14.6413 14.8429 15.6385H14.8544Z" fill="white"/>
<path d="M19.8515 10.6175C20.6575 11.3314 20.6805 12.5666 19.9321 13.3371C19.5406 13.7224 19.0455 13.9263 18.5273 13.9263C18.0091 13.9263 17.5601 13.745 17.1686 13.3824C14.6469 11.0028 11.3652 11.0028 8.80896 13.3824C8.02597 14.1303 6.80542 14.0963 6.04546 13.3258C5.28549 12.5552 5.32003 11.3541 6.10303 10.6062C10.1447 6.78751 15.7983 6.78751 19.8515 10.6062V10.6175Z" fill="white"/>
<path d="M25.4595 7.89856C25.068 8.28383 24.5729 8.48779 24.0547 8.48779C23.5365 8.48779 23.0644 8.30649 22.696 7.94388C21.4754 6.76541 20.0937 5.81357 18.6313 5.12235C14.9812 3.39997 10.9971 3.39997 7.38154 5.12235C5.91918 5.81357 4.57197 6.76541 3.31688 7.94388C2.55691 8.69176 1.31333 8.69176 0.55337 7.92122C-0.206594 7.15068 -0.172051 5.94955 0.576399 5.20167C2.10784 3.71725 3.83504 2.53878 5.67737 1.66626C10.3984 -0.554701 15.6145 -0.554701 20.3009 1.67759C22.1548 2.55011 23.8705 3.72859 25.4019 5.213C26.1849 5.92689 26.2079 7.16201 25.4595 7.90989V7.89856Z" fill="white"/>
</g>
<defs>
<clipPath id="clip0_3265_22539">
<rect width="26" height="20" fill="white"/>
</clipPath>
</defs>
</svg>
